<svg width="30" height="30" viewBox="0 0 30 30" fill="none" xmlns="http://www.w3.org/2000/svg">
<path d="M11.9325 14.1339L22.1068 8.25982L17.3216 5.49707L7.14722 11.3712L11.9325 14.1339Z" fill="white"/>
<path d="M11.543 14.8445L1.34766 8.96997V20.72L11.543 26.5946V14.8445Z" fill="white"/>
<path d="M21.6797 20.8594H20.5664V21.9727H21.6797V20.8594Z" fill="white"/>
<path d="M12.3633 14.8445V26.5946L17.9297 23.3757V14.8936C17.9274 14.4269 18.1107 13.9783 18.4391 13.6467C18.7676 13.315 19.2143 13.1274 19.6811 13.1251H21.1406C21.2238 12.8242 21.4026 12.5585 21.6502 12.3682C21.8977 12.1779 22.2005 12.0734 22.5127 12.0705H22.5V8.96997L12.3633 14.8445Z" fill="white"/>
<path d="M24.8929 12.8906H22.5094C22.1806 12.8906 21.9141 13.1572 21.9141 13.486V13.5257C21.9141 13.8545 22.1806 14.1211 22.5094 14.1211H24.8929C25.2217 14.1211 25.4883 13.8545 25.4883 13.5257V13.486C25.4883 13.1572 25.2217 12.8906 24.8929 12.8906Z" fill="white"/>
<path d="M16.5021 5.02352L11.9333 2.38574L1.75903 8.25988L6.32776 10.8977L16.5021 5.02352Z" fill="white"/>
<path d="M27.7102 13.9453H26.2347C26.1467 14.2356 25.967 14.4896 25.7226 14.6692C25.4781 14.8488 25.182 14.9443 24.8786 14.9414H22.513C22.2097 14.9443 21.9136 14.8488 21.6691 14.6692C21.4246 14.4896 21.2449 14.2356 21.1569 13.9453H19.6814C19.558 13.9463 19.436 13.9716 19.3223 14.0199C19.2087 14.0681 19.1057 14.1382 19.0192 14.2263C18.9327 14.3144 18.8645 14.4186 18.8183 14.5331C18.7722 14.6476 18.7491 14.7701 18.7503 14.8935V26.7353C18.7496 26.8573 18.7732 26.9782 18.8199 27.0909C18.8666 27.2036 18.9353 27.3059 19.022 27.3917C19.1088 27.4775 19.2118 27.5451 19.325 27.5905C19.4383 27.636 19.5594 27.6583 19.6814 27.6562H27.7102C27.8328 27.6585 27.9546 27.6364 28.0686 27.5912C28.1825 27.546 28.2864 27.4785 28.3741 27.3929C28.4617 27.3072 28.5315 27.2049 28.5793 27.092C28.6272 26.9791 28.6521 26.8579 28.6527 26.7353V14.8935C28.6526 14.643 28.5535 14.4028 28.3769 14.2251C28.2003 14.0475 27.9607 13.9469 27.7102 13.9453ZM19.7464 16.7012C19.746 16.6473 19.7563 16.594 19.7765 16.5442C19.7968 16.4943 19.8267 16.449 19.8645 16.4107C19.9023 16.3724 19.9473 16.342 19.9969 16.3211C20.0465 16.3002 20.0997 16.2893 20.1536 16.2891H22.0857C22.1951 16.2893 22.3001 16.3327 22.3777 16.4099C22.4553 16.487 22.4994 16.5917 22.5003 16.7012V16.9771C22.4998 17.086 22.456 17.1903 22.3787 17.267C22.3014 17.3437 22.1968 17.3866 22.0879 17.3863C22.0016 17.3892 21.9167 17.3636 21.8462 17.3136C21.7758 17.2636 21.7237 17.1918 21.698 17.1094H20.5667V18.2227H20.5829C20.6917 18.2227 20.796 18.2659 20.8729 18.3428C20.9498 18.4197 20.993 18.524 20.993 18.6328C20.993 18.7416 20.9498 18.8459 20.8729 18.9228C20.796 18.9998 20.6917 19.043 20.5829 19.043H20.1536C20.0999 19.043 20.0467 19.0323 19.9972 19.0117C19.9476 18.9911 19.9026 18.9609 19.8648 18.9228C19.8269 18.8847 19.797 18.8396 19.7767 18.7899C19.7564 18.7402 19.7461 18.687 19.7464 18.6333V16.7012ZM19.7464 20.4492C19.7464 20.3404 19.7896 20.2361 19.8665 20.1592C19.9434 20.0823 20.0478 20.0391 20.1565 20.0391H22.0901C22.1989 20.0391 22.3032 20.0823 22.3802 20.1592C22.4571 20.2361 22.5003 20.3404 22.5003 20.4492V22.3828C22.5003 22.4916 22.4571 22.5959 22.3802 22.6728C22.3032 22.7498 22.1989 22.793 22.0901 22.793H20.1565C20.0478 22.793 19.9434 22.7498 19.8665 22.6728C19.7896 22.5959 19.7464 22.4916 19.7464 22.3828V20.4492ZM20.5829 26.543H20.1536C20.1006 26.5445 20.0479 26.5354 19.9986 26.5162C19.9492 26.497 19.9042 26.4681 19.8662 26.4312C19.8283 26.3943 19.7981 26.3501 19.7775 26.3013C19.7569 26.2525 19.7463 26.2001 19.7464 26.1471V24.215C19.7451 24.1049 19.787 23.9986 19.8631 23.919C19.9392 23.8394 20.0435 23.7928 20.1536 23.7891H22.0857C22.1965 23.7925 22.3017 23.8388 22.3791 23.9182C22.4564 23.9977 22.4999 24.1041 22.5003 24.215V24.6102C22.498 24.7181 22.4535 24.8207 22.3763 24.8961C22.2992 24.9715 22.1955 25.0137 22.0877 25.0136C21.9798 25.0135 21.8762 24.9711 21.7992 24.8955C21.7222 24.82 21.6779 24.7172 21.6758 24.6094H20.5667V25.7227H20.5829C20.6917 25.7227 20.796 25.7659 20.873 25.8428C20.9499 25.9197 20.9931 26.024 20.9931 26.1328C20.9931 26.2416 20.9499 26.3459 20.873 26.4228C20.796 26.4998 20.6917 26.543 20.5829 26.543ZM23.6101 24.9458L22.1188 26.4371C22.0807 26.4752 22.0355 26.5054 21.9857 26.526C21.936 26.5466 21.8826 26.5572 21.8288 26.5572C21.7749 26.5572 21.7215 26.5466 21.6718 26.526C21.622 26.5054 21.5768 26.4752 21.5387 26.4371L20.8831 25.7817C20.845 25.7436 20.8148 25.6984 20.7942 25.6486C20.7736 25.5988 20.763 25.5455 20.763 25.4916C20.763 25.4378 20.7736 25.3844 20.7942 25.3347C20.8148 25.2849 20.845 25.2397 20.8831 25.2016C20.9212 25.1635 20.9664 25.1333 21.0162 25.1127C21.0659 25.0921 21.1193 25.0814 21.1731 25.0814C21.227 25.0814 21.2804 25.0921 21.3301 25.1127C21.3799 25.1333 21.4251 25.1635 21.4632 25.2016L21.8286 25.567L23.0298 24.3659C23.1067 24.2889 23.211 24.2457 23.3198 24.2457C23.4286 24.2457 23.5329 24.2889 23.6098 24.3659C23.6868 24.4428 23.73 24.5471 23.73 24.6559C23.73 24.7647 23.6868 24.869 23.6098 24.9459L23.6101 24.9458ZM23.6101 17.3726L22.1188 18.8639C22.0807 18.902 22.0355 18.9322 21.9857 18.9528C21.936 18.9734 21.8826 18.9841 21.8288 18.9841C21.7749 18.9841 21.7215 18.9734 21.6718 18.9528C21.622 18.9322 21.5768 18.902 21.5387 18.8639L20.8831 18.2085C20.845 18.1704 20.8148 18.1252 20.7942 18.0754C20.7736 18.0256 20.763 17.9723 20.763 17.9184C20.763 17.8646 20.7736 17.8112 20.7942 17.7615C20.8148 17.7117 20.845 17.6665 20.8831 17.6284C20.9212 17.5903 20.9664 17.5601 21.0162 17.5395C21.0659 17.5189 21.1193 17.5083 21.1731 17.5083C21.227 17.5083 21.2804 17.5189 21.3301 17.5395C21.3799 17.5601 21.4251 17.5903 21.4632 17.6284L21.8286 17.9938L23.0298 16.7927C23.1067 16.7158 23.211 16.6725 23.3198 16.6725C23.4286 16.6725 23.5329 16.7158 23.6098 16.7927C23.6868 16.8696 23.73 16.9739 23.73 17.0827C23.73 17.1915 23.6868 17.2958 23.6098 17.3728L23.6101 17.3726ZM27.238 25.6055H24.6619C24.5531 25.6055 24.4488 25.5623 24.3719 25.4853C24.2949 25.4084 24.2517 25.3041 24.2517 25.1953C24.2517 25.0865 24.2949 24.9822 24.3719 24.9053C24.4488 24.8284 24.5531 24.7852 24.6619 24.7852H27.238C27.3468 24.7852 27.4511 24.8284 27.5281 24.9053C27.605 24.9822 27.6482 25.0865 27.6482 25.1953C27.6482 25.3041 27.605 25.4084 27.5281 25.4853C27.4511 25.5623 27.3468 25.6055 27.238 25.6055ZM27.238 21.8555H24.6619C24.5531 21.8555 24.4488 21.8123 24.3719 21.7353C24.2949 21.6584 24.2517 21.5541 24.2517 21.4453C24.2517 21.3365 24.2949 21.2322 24.3719 21.1553C24.4488 21.0784 24.5531 21.0352 24.6619 21.0352H27.238C27.3468 21.0352 27.4511 21.0784 27.5281 21.1553C27.605 21.2322 27.6482 21.3365 27.6482 21.4453C27.6482 21.5541 27.605 21.6584 27.5281 21.7353C27.4511 21.8123 27.3468 21.8555 27.238 21.8555ZM27.238 18.1055H24.6619C24.5531 18.1055 24.4488 18.0623 24.3719 17.9853C24.2949 17.9084 24.2517 17.8041 24.2517 17.6953C24.2517 17.5865 24.2949 17.4822 24.3719 17.4053C24.4488 17.3284 24.5531 17.2852 24.6619 17.2852H27.238C27.3468 17.2852 27.4511 17.3284 27.5281 17.4053C27.605 17.4822 27.6482 17.5865 27.6482 17.6953C27.6482 17.8041 27.605 17.9084 27.5281 17.9853C27.4511 18.0623 27.3468 18.1055 27.238 18.1055Z" fill="white"/>
</svg>
