<svg width="16" height="16" viewBox="0 0 16 16" fill="none" xmlns="http://www.w3.org/2000/svg">
<g clip-path="url(#clip0)">
<path d="M14.6667 5.27735e-07H1.33333C1.15819 -0.00015536 0.984742 0.034226 0.822905 0.101177C0.661067 0.168128 0.51402 0.266335 0.390177 0.390177C0.266335 0.51402 0.168128 0.661067 0.101177 0.822905C0.034226 0.984742 -0.00015536 1.15819 5.27735e-07 1.33333V14.6667C-0.00015536 14.8418 0.034226 15.0153 0.101177 15.1771C0.168128 15.3389 0.266335 15.486 0.390177 15.6098C0.51402 15.7337 0.661067 15.8319 0.822905 15.8988C0.984742 15.9658 1.15819 16.0002 1.33333 16H14.6667C14.8418 16.0002 15.0153 15.9658 15.1771 15.8988C15.3389 15.8319 15.486 15.7337 15.6098 15.6098C15.7337 15.486 15.8319 15.3389 15.8988 15.1771C15.9658 15.0153 16.0002 14.8418 16 14.6667V1.33333C16.0002 1.15819 15.9658 0.984742 15.8988 0.822905C15.8319 0.661067 15.7337 0.51402 15.6098 0.390177C15.486 0.266335 15.3389 0.168128 15.1771 0.101177C15.0153 0.034226 14.8418 -0.00015536 14.6667 5.27735e-07ZM12.4794 5.60415L6.90904 11.2H6.90489C6.77725 11.3331 6.60517 11.4147 6.42133 11.4293C6.23435 11.4159 6.0597 11.331 5.93363 11.1923L3.60059 8.85926C3.58483 8.84381 3.5723 8.82537 3.56375 8.80502C3.5552 8.78467 3.55079 8.76282 3.55079 8.74074C3.55079 8.71867 3.5552 8.69681 3.56375 8.67646C3.5723 8.65611 3.58483 8.63767 3.60059 8.62222L4.34193 7.88148C4.35698 7.86567 4.37509 7.85308 4.39516 7.84448C4.41523 7.83587 4.43683 7.83144 4.45867 7.83144C4.4805 7.83144 4.50211 7.83587 4.52217 7.84448C4.54224 7.85308 4.56035 7.86567 4.57541 7.88148L6.42548 9.73155L11.5087 4.61096C11.5241 4.59515 11.5426 4.58259 11.5629 4.57404C11.5833 4.56549 11.6052 4.56112 11.6273 4.56118C11.6495 4.56026 11.6716 4.56424 11.6921 4.57284C11.7126 4.58145 11.7309 4.59446 11.7458 4.61096L12.4747 5.36533C12.4912 5.38035 12.5046 5.3986 12.5138 5.41896C12.5231 5.43932 12.5281 5.46135 12.5286 5.48372C12.529 5.50608 12.5249 5.5283 12.5164 5.54901C12.508 5.56972 12.4954 5.58848 12.4794 5.60415Z" fill="#35D187"/>
</g>
<defs>
<clipPath id="clip0">
<rect width="16" height="16" fill="white"/>
</clipPath>
</defs>
</svg>
