<svg width="30" height="30" viewBox="0 0 30 30" fill="none" xmlns="http://www.w3.org/2000/svg">
<path d="M29.5264 11.5192L26.7823 10.8325C26.6376 10.4279 26.4679 10.0226 26.2751 9.62033L27.7332 7.18992C27.8809 6.94395 27.8418 6.629 27.6392 6.42639L23.5737 2.36021C23.3711 2.15695 23.0549 2.1191 22.8101 2.26623L20.3791 3.72498C19.9775 3.53209 19.5722 3.3624 19.1675 3.21779L18.4808 0.473613C18.4113 0.195293 18.1616 0 17.8748 0H12.1253C11.8384 0 11.5888 0.195293 11.5192 0.473613L10.8325 3.21773C10.4279 3.3624 10.0226 3.53209 9.62098 3.72492L7.18992 2.26617C6.94395 2.11969 6.629 2.15689 6.42639 2.36016L2.36086 6.42633C2.15824 6.62895 2.11916 6.94389 2.26688 7.18986L3.72498 9.62027C3.53209 10.0225 3.3624 10.4278 3.21779 10.8325L0.473613 11.5192C0.195293 11.5887 0 11.8384 0 12.1253V17.8748C0 18.1617 0.195293 18.4113 0.473613 18.4809L3.21773 19.1675C3.3624 19.5722 3.53209 19.9775 3.72492 20.3797L2.26682 22.8101C2.1191 23.0561 2.15818 23.3711 2.3608 23.5737L6.42633 27.6392C6.62777 27.8412 6.9433 27.8797 7.18986 27.7332L9.62027 26.2751C10.0225 26.468 10.4278 26.6377 10.8325 26.7823L11.5191 29.5264C11.5887 29.8047 11.8383 30 12.1252 30H17.8747C18.1616 30 18.4112 29.8047 18.4808 29.5264L19.1675 26.7823C19.5721 26.6376 19.9774 26.4679 20.3797 26.2751L22.8101 27.7332C23.0561 27.8803 23.371 27.8425 23.5736 27.6392L27.6391 23.5737C27.8418 23.3711 27.8808 23.0561 27.7331 22.8101L26.275 20.3797C26.4679 19.9775 26.6376 19.5722 26.7822 19.1675L29.5263 18.4809C29.8046 18.4113 29.9999 18.1617 29.9999 17.8748V12.1253C30 11.8384 29.8047 11.5887 29.5264 11.5192ZM15 22.5C10.8643 22.5 7.5 19.1357 7.5 15C7.5 10.8643 10.8643 7.5 15 7.5C19.1357 7.5 22.5 10.8643 22.5 15C22.5 19.1357 19.1357 22.5 15 22.5Z" fill="white"/>
</svg>
