<svg width="48" height="33" viewBox="0 0 48 33" fill="none" xmlns="http://www.w3.org/2000/svg">
<path d="M0 25.2186C0 25.7107 0.34485 26.0969 0.836961 26.0969H2.17326C3.07115 24.1164 5.11544 22.6177 7.48908 22.6177C9.86284 22.6177 11.9067 24.1164 12.805 26.0969H30.1744V18.9902H0V25.2186Z" fill="#35D187"/>
<path d="M7.48879 24.4956C5.31332 24.4956 3.5498 26.2591 3.5498 28.4346C3.5498 30.6101 5.31332 32.3736 7.48879 32.3736C9.66321 32.3711 11.4253 30.609 11.4278 28.4346C11.4278 26.2592 9.66426 24.4956 7.48879 24.4956Z" fill="#35D187"/>
<path d="M47.4874 16.0952L43.736 14.4463H32.0391V26.0966H34.3095C35.208 24.1161 37.2517 22.6174 39.6253 22.6174C41.999 22.6174 44.0432 24.1161 44.9411 26.0966H47.1631C47.6552 26.0966 48.0001 25.7104 48.0001 25.2183V16.9426C48.0124 16.5834 47.8113 16.2509 47.4874 16.0952Z" fill="#35D187"/>
<path d="M39.8792 7.72947C39.4111 6.83181 38.4764 6.27528 37.4641 6.29135H32.0391V12.5825H42.398L39.8792 7.72947Z" fill="#35D187"/>
<path d="M27.499 0H2.66141C1.16329 0 0 1.23331 0 2.73143V17.126H30.1744V2.73143C30.1744 2.72723 30.1745 2.72304 30.1745 2.71884C30.1865 1.22935 28.9886 0.0119999 27.499 0Z" fill="#35D187"/>
<path d="M39.6244 24.4956C37.4489 24.4957 35.6854 26.2592 35.6855 28.4347C35.6857 30.6102 37.4492 32.3737 39.6246 32.3736C41.7991 32.3711 43.5611 30.609 43.5635 28.4346V28.4345C43.5634 26.2591 41.7999 24.4956 39.6244 24.4956Z" fill="#35D187"/>
</svg>
