<svg width="29" height="16" viewBox="0 0 29 16" fill="none" xmlns="http://www.w3.org/2000/svg">
<path d="M26.2898 7.44892C26.878 6.83771 27.2441 6.01116 27.2441 5.09766C27.2441 3.22336 25.72 1.69922 23.8457 1.69922C21.9714 1.69922 20.4473 3.22336 20.4473 5.09766C20.4473 6.01116 20.8136 6.83771 21.4017 7.44892C20.5705 7.90794 19.8876 8.58434 19.4216 9.41107C18.8661 8.59369 18.0996 7.94345 17.2178 7.48534C18.1452 6.7054 18.748 5.55163 18.748 4.24805C18.748 1.90579 16.8423 0 14.5 0C12.1577 0 10.252 1.90579 10.252 4.24805C10.252 5.55163 10.8548 6.7054 11.7822 7.48534C10.9004 7.94345 10.1339 8.5938 9.57844 9.41107C9.11234 8.5844 8.42954 7.90788 7.5984 7.44892C8.18655 6.83771 8.55273 6.01116 8.55273 5.09766C8.55273 3.22336 7.02859 1.69922 5.1543 1.69922C3.28 1.69922 1.75586 3.22336 1.75586 5.09766C1.75586 6.01116 2.12215 6.83771 2.71031 7.44892C1.137 8.31773 0 9.97356 0 11.8945V14.4434C0 14.913 0.380002 15.293 0.849609 15.293C10.0061 15.293 17.8594 15.293 28.1504 15.293C28.62 15.293 29 14.913 29 14.4434V11.8945C29 9.97356 27.8631 8.31773 26.2898 7.44892Z" fill="#35D187"/>
</svg>
