<svg width="30" height="27" viewBox="0 0 30 27" fill="none" xmlns="http://www.w3.org/2000/svg">
<path d="M16.7578 0H20.2734V6.15234H16.7578V0Z" fill="white"/>
<path d="M29.1211 0H22.0312V7.03125C22.0312 7.51664 21.6377 7.91016 21.1523 7.91016H15.8789C15.3935 7.91016 15 7.51664 15 7.03125V0H7.96875C7.48336 0 7.08984 0.393516 7.08984 0.878906V11.4724C7.37924 11.43 7.67285 11.408 7.96875 11.408C9.58863 11.408 11.1427 12.0589 12.2807 13.1835H15.8789C17.8174 13.1835 19.3945 14.7606 19.3945 16.6992C19.3945 18.6377 17.8174 20.2148 15.8789 20.2148H22.0312C23.6664 20.2148 25.0444 21.3369 25.4356 22.8515H29.1211C29.6065 22.8515 30 22.458 30 21.9726V0.878906C30 0.393516 29.6065 0 29.1211 0Z" fill="white"/>
<path d="M22.0312 21.9723H14.1211C12.1795 21.9723 10.6055 20.3983 10.6055 18.4567H15.8789C16.8497 18.4567 17.6367 17.6697 17.6367 16.6988C17.6367 15.728 16.8497 14.941 15.8789 14.941H11.4844C10.661 13.8245 9.35607 13.1655 7.96875 13.1655C6.58143 13.1655 5.27654 13.8245 4.45312 14.941H3.57422V14.3551C3.57422 13.8697 3.1807 13.4762 2.69531 13.4762H0.878906C0.393516 13.4762 0 13.8697 0 14.3551V25.4879C0 25.9733 0.393516 26.3668 0.878906 26.3668H2.69531C3.1807 26.3668 3.57422 25.9733 3.57422 25.4879V23.7301H4.45312L9.96094 25.4879H22.0312C23.0021 25.4879 23.7891 24.7009 23.7891 23.7301C23.7891 22.7593 23.0021 21.9723 22.0312 21.9723Z" fill="white"/>
</svg>
