<svg width="30" height="30" viewBox="0 0 30 30" fill="none" xmlns="http://www.w3.org/2000/svg">
<path d="M0.00146484 22.0466V24.6782H10.5861V21.1694H0.878646C0.394442 21.1694 0.00146484 21.5624 0.00146484 22.0466Z" fill="white"/>
<path d="M0.00146484 29.0644C0.00146484 29.5486 0.394442 29.9416 0.878646 29.9416H10.5861V26.4329H0.00146484V29.0644Z" fill="white"/>
<path d="M29.1229 21.1694H19.3569L19.3575 24.6782H30.0001V22.0466C30.0001 21.5624 29.6071 21.1694 29.1229 21.1694Z" fill="white"/>
<path d="M12.3415 21.1694L12.3403 29.9413H17.6034L17.6023 21.1694H12.3415Z" fill="white"/>
<path d="M19.3575 29.9416H29.0644C29.5486 29.9416 29.9416 29.5486 29.9416 29.0644V26.4329H19.3569L19.3575 29.9416Z" fill="white"/>
<path d="M17.2497 11.7788C16.5266 10.5253 14.9134 10.0887 13.655 10.8157C12.3954 11.5432 11.9644 13.1508 12.6919 14.4104C13.4188 15.67 15.027 16.101 16.2866 15.3735C17.5462 14.6466 17.9772 13.0385 17.2497 11.7788ZM17.2497 11.7788C16.5266 10.5253 14.9134 10.0887 13.655 10.8157C12.3954 11.5432 11.9644 13.1508 12.6919 14.4104C13.4188 15.67 15.027 16.101 16.2866 15.3735C17.5462 14.6466 17.9772 13.0385 17.2497 11.7788ZM29.8262 12.6601L22.8596 0.44274C22.6187 0.0205239 22.0807 -0.125088 21.6596 0.117014L0.440015 12.3344C0.0207225 12.5759 -0.124305 13.1104 0.116043 13.5303L3.48266 19.415H19.8345L29.5016 13.8548C29.9203 13.6139 30.0654 13.08 29.8262 12.6601ZM9.33229 17.363L7.81302 18.2402C7.39606 18.4811 6.85806 18.3413 6.61479 17.9191C6.3721 17.4998 6.51596 16.963 6.93583 16.7209L8.45511 15.8437C8.87441 15.6016 9.41124 15.7455 9.65334 16.1648C9.89545 16.5846 9.75159 17.1209 9.33229 17.363ZM17.1638 16.8934C15.0597 18.108 12.3825 17.3834 11.1726 15.2876C9.96036 13.1888 10.6785 10.5087 12.7779 9.29642C14.8726 8.08708 17.5603 8.80754 18.769 10.9017C19.9813 13.0011 19.2632 15.6811 17.1638 16.8934ZM23.0058 9.46835L21.4865 10.3455C21.0696 10.5865 20.5321 10.4467 20.2883 10.0245C20.0462 9.60519 20.19 9.06836 20.6093 8.82625L22.1286 7.94907C22.5485 7.70697 23.0847 7.85083 23.3268 8.27012C23.5695 8.69 23.4257 9.22625 23.0058 9.46835ZM13.655 10.8157C12.3954 11.5432 11.9644 13.1508 12.6919 14.4104C13.4188 15.67 15.027 16.101 16.2866 15.3735C17.5462 14.6466 17.9772 13.0385 17.2497 11.7788C16.5266 10.5252 14.9135 10.0887 13.655 10.8157Z" fill="white"/>
</svg>
