<svg width="75" height="20" viewBox="0 0 75 20" fill="none" xmlns="http://www.w3.org/2000/svg">
<path d="M31.712 16.192C31.008 16.192 30.352 16.0747 29.744 15.84C29.1467 15.6053 28.624 15.2587 28.176 14.8C27.7387 14.3413 27.3973 13.776 27.152 13.104C26.9067 12.432 26.784 11.664 26.784 10.8C26.784 9.94667 26.912 9.184 27.168 8.512C27.424 7.82933 27.7707 7.25333 28.208 6.784C28.656 6.31467 29.1787 5.95733 29.776 5.712C30.384 5.46667 31.0347 5.344 31.728 5.344C32.4747 5.344 33.104 5.48267 33.616 5.76C34.1387 6.02667 34.5653 6.33067 34.896 6.672L33.904 7.872C33.6373 7.616 33.3387 7.40267 33.008 7.232C32.688 7.05067 32.2827 6.96 31.792 6.96C31.3227 6.96 30.896 7.05067 30.512 7.232C30.1387 7.40267 29.8133 7.65333 29.536 7.984C29.2693 8.304 29.0613 8.69867 28.912 9.168C28.7627 9.63733 28.688 10.1653 28.688 10.752C28.688 11.9467 28.9547 12.8853 29.488 13.568C30.032 14.24 30.832 14.576 31.888 14.576C32.1867 14.576 32.4693 14.5387 32.736 14.464C33.0027 14.3787 33.2213 14.2613 33.392 14.112V11.856H31.408V10.336H35.056V14.944C34.704 15.296 34.2347 15.5947 33.648 15.84C33.072 16.0747 32.4267 16.192 31.712 16.192ZM40.4309 16.192C39.9402 16.192 39.4709 16.1013 39.0229 15.92C38.5749 15.7387 38.1749 15.472 37.8229 15.12C37.4815 14.768 37.2095 14.336 37.0069 13.824C36.8042 13.312 36.7029 12.7307 36.7029 12.08C36.7029 11.4293 36.8042 10.848 37.0069 10.336C37.2095 9.824 37.4815 9.392 37.8229 9.04C38.1749 8.688 38.5749 8.42133 39.0229 8.24C39.4709 8.048 39.9402 7.952 40.4309 7.952C40.9215 7.952 41.3909 8.048 41.8389 8.24C42.2975 8.42133 42.6975 8.688 43.0389 9.04C43.3802 9.392 43.6522 9.824 43.8549 10.336C44.0682 10.848 44.1749 11.4293 44.1749 12.08C44.1749 12.7307 44.0682 13.312 43.8549 13.824C43.6522 14.336 43.3802 14.768 43.0389 15.12C42.6975 15.472 42.2975 15.7387 41.8389 15.92C41.3909 16.1013 40.9215 16.192 40.4309 16.192ZM40.4309 14.688C41.0069 14.688 41.4602 14.4533 41.7909 13.984C42.1215 13.504 42.2869 12.8693 42.2869 12.08C42.2869 11.28 42.1215 10.6453 41.7909 10.176C41.4602 9.696 41.0069 9.456 40.4309 9.456C39.8549 9.456 39.4015 9.696 39.0709 10.176C38.7509 10.6453 38.5909 11.28 38.5909 12.08C38.5909 12.8693 38.7509 13.504 39.0709 13.984C39.4015 14.4533 39.8549 14.688 40.4309 14.688ZM49.2121 16.192C48.7215 16.192 48.2521 16.1013 47.8041 15.92C47.3561 15.7387 46.9561 15.472 46.6041 15.12C46.2628 14.768 45.9908 14.336 45.7881 13.824C45.5855 13.312 45.4841 12.7307 45.4841 12.08C45.4841 11.4293 45.5855 10.848 45.7881 10.336C45.9908 9.824 46.2628 9.392 46.6041 9.04C46.9561 8.688 47.3561 8.42133 47.8041 8.24C48.2521 8.048 48.7215 7.952 49.2121 7.952C49.7028 7.952 50.1721 8.048 50.6201 8.24C51.0788 8.42133 51.4788 8.688 51.8201 9.04C52.1615 9.392 52.4335 9.824 52.6361 10.336C52.8495 10.848 52.9561 11.4293 52.9561 12.08C52.9561 12.7307 52.8495 13.312 52.6361 13.824C52.4335 14.336 52.1615 14.768 51.8201 15.12C51.4788 15.472 51.0788 15.7387 50.6201 15.92C50.1721 16.1013 49.7028 16.192 49.2121 16.192ZM49.2121 14.688C49.7881 14.688 50.2415 14.4533 50.5721 13.984C50.9028 13.504 51.0681 12.8693 51.0681 12.08C51.0681 11.28 50.9028 10.6453 50.5721 10.176C50.2415 9.696 49.7881 9.456 49.2121 9.456C48.6361 9.456 48.1828 9.696 47.8521 10.176C47.5321 10.6453 47.3721 11.28 47.3721 12.08C47.3721 12.8693 47.5321 13.504 47.8521 13.984C48.1828 14.4533 48.6361 14.688 49.2121 14.688ZM57.5134 19.472C57.044 19.472 56.6067 19.4293 56.2014 19.344C55.8067 19.2587 55.4654 19.1307 55.1774 18.96C54.8894 18.7893 54.66 18.576 54.4894 18.32C54.3294 18.064 54.2494 17.7653 54.2494 17.424C54.2494 17.0933 54.3454 16.784 54.5374 16.496C54.7294 16.2187 55.0067 15.968 55.3694 15.744V15.68C55.1667 15.552 54.996 15.3813 54.8574 15.168C54.7294 14.9547 54.6654 14.688 54.6654 14.368C54.6654 14.0587 54.7507 13.7813 54.9214 13.536C55.1027 13.28 55.3054 13.072 55.5294 12.912V12.848C55.2627 12.6453 55.0227 12.368 54.8094 12.016C54.6067 11.6533 54.5054 11.2373 54.5054 10.768C54.5054 10.32 54.5907 9.92 54.7614 9.568C54.932 9.216 55.156 8.92267 55.4334 8.688C55.7214 8.44267 56.052 8.26133 56.4254 8.144C56.7987 8.016 57.1934 7.952 57.6094 7.952C57.8227 7.952 58.0254 7.97333 58.2174 8.016C58.42 8.048 58.6014 8.09067 58.7614 8.144H61.5774V9.504H60.1374C60.2654 9.65333 60.372 9.84533 60.4574 10.08C60.5427 10.304 60.5854 10.5547 60.5854 10.832C60.5854 11.2693 60.5054 11.6533 60.3454 11.984C60.196 12.3147 59.988 12.592 59.7214 12.816C59.4547 13.04 59.14 13.2107 58.7774 13.328C58.4147 13.4453 58.0254 13.504 57.6094 13.504C57.4387 13.504 57.2627 13.488 57.0814 13.456C56.9 13.424 56.7187 13.3707 56.5374 13.296C56.42 13.4027 56.324 13.5093 56.2494 13.616C56.1854 13.7227 56.1534 13.8667 56.1534 14.048C56.1534 14.272 56.244 14.448 56.4254 14.576C56.6174 14.704 56.9534 14.768 57.4334 14.768H58.8254C59.7747 14.768 60.4894 14.9227 60.9694 15.232C61.46 15.5307 61.7054 16.0213 61.7054 16.704C61.7054 17.088 61.604 17.4507 61.4014 17.792C61.2094 18.1333 60.932 18.4267 60.5694 18.672C60.2067 18.9173 59.764 19.1093 59.2414 19.248C58.7294 19.3973 58.1534 19.472 57.5134 19.472ZM57.6094 12.352C57.9827 12.352 58.3027 12.2187 58.5694 11.952C58.836 11.6747 58.9694 11.28 58.9694 10.768C58.9694 10.2773 58.836 9.89867 58.5694 9.632C58.3134 9.35467 57.9934 9.216 57.6094 9.216C57.2254 9.216 56.9 9.34933 56.6334 9.616C56.3667 9.88267 56.2334 10.2667 56.2334 10.768C56.2334 11.28 56.3667 11.6747 56.6334 11.952C56.9 12.2187 57.2254 12.352 57.6094 12.352ZM57.8014 18.272C58.4414 18.272 58.9534 18.144 59.3374 17.888C59.732 17.6427 59.9294 17.3493 59.9294 17.008C59.9294 16.6987 59.8067 16.4907 59.5614 16.384C59.3267 16.2773 58.9854 16.224 58.5374 16.224H57.4654C57.0387 16.224 56.6814 16.1867 56.3934 16.112C55.988 16.4213 55.7854 16.768 55.7854 17.152C55.7854 17.504 55.9614 17.776 56.3134 17.968C56.676 18.1707 57.172 18.272 57.8014 18.272ZM64.8819 16.192C64.2205 16.192 63.7565 15.9947 63.4899 15.6C63.2232 15.2053 63.0899 14.6667 63.0899 13.984V4.704H64.9299V14.08C64.9299 14.304 64.9725 14.464 65.0579 14.56C65.1432 14.6453 65.2339 14.688 65.3299 14.688C65.3725 14.688 65.4099 14.688 65.4419 14.688C65.4845 14.688 65.5432 14.6773 65.6179 14.656L65.8579 16.032C65.6125 16.1387 65.2872 16.192 64.8819 16.192ZM70.7936 16.192C70.2496 16.192 69.743 16.1013 69.2736 15.92C68.8043 15.728 68.3936 15.456 68.0416 15.104C67.6896 14.752 67.4123 14.3253 67.2096 13.824C67.0176 13.312 66.9216 12.7307 66.9216 12.08C66.9216 11.44 67.023 10.864 67.2256 10.352C67.4283 9.84 67.695 9.408 68.0256 9.056C68.367 8.704 68.7563 8.432 69.1936 8.24C69.631 8.048 70.079 7.952 70.5376 7.952C71.071 7.952 71.5403 8.04267 71.9456 8.224C72.351 8.40533 72.687 8.66133 72.9536 8.992C73.231 9.32267 73.439 9.71733 73.5776 10.176C73.7163 10.6347 73.7856 11.136 73.7856 11.68C73.7856 11.8613 73.775 12.032 73.7536 12.192C73.743 12.352 73.727 12.48 73.7056 12.576H68.7136C68.799 13.28 69.0443 13.824 69.4496 14.208C69.8656 14.5813 70.3936 14.768 71.0336 14.768C71.375 14.768 71.6896 14.72 71.9776 14.624C72.2763 14.5173 72.5696 14.3733 72.8576 14.192L73.4816 15.344C73.1083 15.5893 72.6923 15.792 72.2336 15.952C71.775 16.112 71.295 16.192 70.7936 16.192ZM68.6976 11.328H72.1856C72.1856 10.72 72.0523 10.2453 71.7856 9.904C71.5296 9.552 71.1296 9.376 70.5856 9.376C70.1163 9.376 69.7056 9.54133 69.3536 9.872C69.0016 10.2027 68.783 10.688 68.6976 11.328Z" fill="#1D2029"/>
<path fill-rule="evenodd" clip-rule="evenodd" d="M3.49091 11.4877L2.94261 13.5928L0.938611 13.6364C0.339708 12.4939 0 11.1868 0 9.79781C0 8.45464 0.317618 7.18802 0.880619 6.07272H0.881049L2.66518 6.40912L3.44673 8.233C3.28315 8.72346 3.194 9.24996 3.194 9.79781C3.19406 10.3924 3.29878 10.9621 3.49091 11.4877Z" fill="#FBBB00"/>
<path fill-rule="evenodd" clip-rule="evenodd" d="M15.8597 8.4C15.9519 8.87333 16 9.36215 16 9.86173C16 10.4219 15.9395 10.9684 15.8244 11.4955C15.4334 13.2891 14.4119 14.8553 12.9967 15.9636L12.9963 15.9632L10.7048 15.8493L10.3805 13.8768C11.3195 13.3403 12.0533 12.5006 12.4399 11.4955H8.14545V8.4H12.5025H15.8597Z" fill="#518EF8"/>
<path fill-rule="evenodd" clip-rule="evenodd" d="M12.7996 15.9281L12.8 15.9286C11.4436 17.0426 9.72045 17.7091 7.84471 17.7091C4.83038 17.7091 2.20965 15.9877 0.872742 13.4544L3.43782 11.3091C4.10626 13.1318 5.82718 14.4293 7.84471 14.4293C8.7119 14.4293 9.52433 14.1898 10.2215 13.7717L12.7996 15.9281Z" fill="#28B446"/>
<path fill-rule="evenodd" clip-rule="evenodd" d="M13.0909 3.8262L10.4979 5.93003C9.76833 5.47807 8.90589 5.21698 7.98191 5.21698C5.89555 5.21698 4.12276 6.54805 3.48068 8.4L0.873179 6.28439H0.872742C2.20487 3.73903 4.88844 2 7.98191 2C9.92401 2 11.7047 2.6856 13.0909 3.8262Z" fill="#F14336"/>
</svg>
