<svg width="48" height="51" viewBox="0 0 48 51" fill="none" xmlns="http://www.w3.org/2000/svg">
<path d="M45.5886 45.3012H44.5712V20.25H44.5704C43.3207 20.25 42.1374 19.8421 41.1529 19.1553C40.4898 19.6215 39.7266 19.9661 38.8824 20.1344C38.495 20.2115 38.1012 20.25 37.7115 20.25C37.453 20.25 37.2003 20.2212 36.9491 20.1884V38.8231C36.9491 39.8864 36.0867 40.7488 35.0225 40.7488H28.1014V35.471L30.5415 39.5435C30.8296 40.0251 31.34 40.2919 31.8635 40.2919C32.1318 40.2919 32.4051 40.2212 32.653 40.0727C33.3816 39.6355 33.6187 38.6908 33.1812 37.9615L28.2761 29.774C27.9725 29.266 27.4211 29.015 26.8689 29.0463C26.832 29.0429 21.1856 29.042 21.1512 29.0445C20.5916 29.006 20.032 29.2595 19.7235 29.774L14.8183 37.9615C14.3809 38.6908 14.618 39.6355 15.3467 40.0727C15.5946 40.2212 15.8678 40.2919 16.1362 40.2919C16.6597 40.2919 17.1701 40.0251 17.4581 39.5435L19.9139 35.4449V40.7488H12.9779C11.9136 40.7488 11.0513 39.8866 11.0513 38.8231V20.1884C10.8003 20.2212 10.5474 20.25 10.289 20.25C9.90169 20.25 9.50776 20.2115 9.11404 20.1335C8.27045 19.9654 7.50896 19.6215 6.84677 19.1553C5.86221 19.8421 4.6798 20.25 3.42997 20.25H3.42915V45.3012H2.4118C1.08006 45.3012 0.000976562 46.3802 0.000976562 47.712C0.000976562 49.0438 1.08006 50.1229 2.4118 50.1229H45.5889C46.9207 50.1229 47.9997 49.0438 47.9997 47.712C47.9994 46.3802 46.9204 45.3012 45.5886 45.3012Z" fill="#35D187"/>
<path d="M23.9997 20.397C22.2297 20.397 20.793 22.039 20.793 24.0657C20.793 26.0908 22.2297 27.7343 23.9997 27.7343C25.7713 27.7343 27.2073 26.0908 27.2073 24.0657C27.2072 22.039 25.7713 20.397 23.9997 20.397Z" fill="#35D187"/>
<path d="M2.44829 17.5352C2.77582 17.632 3.10563 17.6786 3.4314 17.6786C4.90669 17.6786 6.27059 16.7179 6.71437 15.2311L6.89483 14.6279C7.05648 16.073 8.11499 17.3136 9.61664 17.6123C9.8422 17.6574 10.0679 17.6787 10.2895 17.6787C11.892 17.6787 13.3238 16.5498 13.6488 14.9193L13.7325 14.5C13.8507 16.132 15.1192 17.4942 16.8029 17.6616C16.9187 17.6729 17.0335 17.6779 17.1476 17.6779C18.8872 17.6779 20.3781 16.3586 20.5546 14.5895L20.58 14.3351C20.6267 16.1887 22.1359 17.6779 24.0001 17.6779C25.8642 17.6779 27.3734 16.1887 27.4201 14.3351L27.4454 14.5895C27.622 16.3586 29.1129 17.6779 30.8525 17.6779C30.9666 17.6779 31.0814 17.673 31.1971 17.6616C32.8808 17.4942 34.1503 16.132 34.2675 14.5L34.3512 14.9193C34.6763 16.5505 36.108 17.6787 37.7104 17.6787C37.9321 17.6787 38.1578 17.6574 38.3834 17.6123C39.885 17.3136 40.9445 16.073 41.1052 14.6279L41.2856 15.2311C41.7295 16.718 43.0933 17.6786 44.5686 17.6786C44.8943 17.6786 45.2242 17.6319 45.5517 17.5352C47.3666 16.9926 48.3973 15.0825 47.8558 13.2691L44.7614 2.9121C44.2453 1.18406 42.6559 0 40.8524 0H7.14759C5.34405 0 3.75469 1.18406 3.23863 2.9121L0.144193 13.2691C-0.397315 15.0825 0.63337 16.9926 2.44829 17.5352Z" fill="#35D187"/>
</svg>
