<svg width="25" height="35" viewBox="0 0 25 35" fill="none" xmlns="http://www.w3.org/2000/svg">
<path d="M6.21781 24.2547L6.80053 28.4009C7.02425 29.9927 7.87114 31.4305 9.15493 32.3979C10.4387 33.3653 12.0542 33.7831 13.646 33.5594L16.2346 33.1956C17.8265 32.9719 19.2642 32.125 20.2316 30.8412C21.199 29.5574 21.6168 27.9419 21.3931 26.3501L20.8104 22.2038C21.4797 22.1039 22.0825 21.7436 22.4874 21.2014C22.8924 20.6591 23.0667 19.9789 22.9725 19.3087L22.8921 18.7363L20.3728 19.0904L18.7043 7.21808C18.4805 5.62625 17.6337 4.18848 16.3499 3.22108C15.0661 2.25367 13.4506 1.83587 11.8587 2.05959L9.27017 2.42339C7.67833 2.64711 6.24058 3.49402 5.27317 4.7778C4.30577 6.06159 3.88799 7.6771 4.11171 9.26893L5.78025 21.1413L3.261 21.4953L3.34145 22.0677C3.43561 22.7379 3.79071 23.3437 4.32943 23.7533C4.86815 24.1629 5.54687 24.3431 6.21781 24.2547ZM11.1445 6.36893C15.267 5.78955 17.0238 7.00892 17.0238 7.00892L16.2755 10.8817C14.7843 10.7239 13.2779 10.7876 11.8053 11.0707C10.3117 11.2044 8.84612 11.5584 7.45619 12.1212L5.66937 8.60468C5.66937 8.60468 7.02105 6.94844 11.1445 6.36893ZM8.64835 20.6039C10.1396 20.7618 11.646 20.6981 13.1186 20.4149C14.6121 20.2812 16.0777 19.9272 17.4677 19.3644L19.2545 22.8809C19.2545 22.8809 17.902 24.5383 13.7795 25.1177C9.65701 25.6971 7.90003 24.4767 7.90003 24.4767L8.64835 20.6039Z" fill="black"/>
<path d="M5.66539 8.60624C5.66539 8.60624 7.01806 6.94983 11.1405 6.37046C15.263 5.79108 17.0198 7.01048 17.0198 7.01048L16.2716 10.8833C14.7803 10.7254 13.2739 10.789 11.8013 11.0723C10.3077 11.2059 8.84214 11.5599 7.45222 12.1228L5.66539 8.60624Z" fill="white"/>
<path d="M7.89649 24.4802L8.64481 20.6074C10.136 20.7653 11.6424 20.7017 13.115 20.4184C14.6086 20.2848 16.0742 19.9308 17.4641 19.3679L19.2509 22.8845C19.2509 22.8845 17.8984 24.5418 13.7759 25.1212C9.65346 25.7006 7.89649 24.4802 7.89649 24.4802Z" fill="white"/>
</svg>
