<svg width="30" height="30" viewBox="0 0 30 30" fill="none" xmlns="http://www.w3.org/2000/svg">
<g filter="url(#filter0_d)">
<path d="M21.0337 11.5304H23.6117V17.7031H21.0337V11.5304Z" fill="#35D187"/>
<path d="M16.1519 11.5304H18.73V17.7031H16.1519V11.5304Z" fill="#35D187"/>
<path d="M11.27 11.5304H13.8481V17.7031H11.27V11.5304Z" fill="#35D187"/>
<path d="M6.38818 11.5304H8.96614V17.7031H6.38818V11.5304Z" fill="#35D187"/>
<path d="M24.4715 9.59682V8.95229H5.52881V9.59682C5.52881 9.95282 5.81734 10.2414 6.17334 10.2414H23.827C24.1828 10.2414 24.4715 9.95282 24.4715 9.59682Z" fill="#35D187"/>
<path d="M25.355 18.9922H4.64502C4.28902 18.9922 4.00049 19.2807 4.00049 19.6368V21.3555C4.00049 21.7115 4.28902 22 4.64502 22H25.355C25.711 22 25.9995 21.7115 25.9995 21.3555V19.6368C25.9995 19.2807 25.711 18.9922 25.355 18.9922Z" fill="#35D187"/>
<path d="M4.64447 7.66322H25.3554C25.6438 7.66322 25.8971 7.47171 25.9756 7.19425C26.054 6.9168 25.9389 6.62089 25.6933 6.46983L15.3378 0.0956727C15.1307 -0.0318909 14.8694 -0.0318909 14.6621 0.0956727L4.3066 6.46983C4.06104 6.62106 3.9459 6.9168 4.02445 7.19425C4.103 7.47171 4.35628 7.66322 4.64447 7.66322ZM14.5619 3.79099H15.4382C15.7942 3.79099 16.0827 4.07952 16.0827 4.43552C16.0827 4.79153 15.7942 5.08006 15.4382 5.08006H14.5619C14.2059 5.08006 13.9173 4.79153 13.9173 4.43552C13.9173 4.07952 14.2059 3.79099 14.5619 3.79099Z" fill="#35D187"/>
</g>
<defs>
<filter id="filter0_d" x="0" y="0" width="30" height="30" filterUnits="userSpaceOnUse" color-interpolation-filters="sRGB">
<feFlood flood-opacity="0" result="BackgroundImageFix"/>
<feColorMatrix in="SourceAlpha" type="matrix" values="0 0 0 0 0 0 0 0 0 0 0 0 0 0 0 0 0 0 127 0"/>
<feOffset dy="4"/>
<feGaussianBlur stdDeviation="2"/>
<feColorMatrix type="matrix" values="0 0 0 0 0 0 0 0 0 0 0 0 0 0 0 0 0 0 0.25 0"/>
<feBlend mode="normal" in2="BackgroundImageFix" result="effect1_dropShadow"/>
<feBlend mode="normal" in="SourceGraphic" in2="effect1_dropShadow" result="shape"/>
</filter>
</defs>
</svg>
