<svg width="22" height="16" viewBox="0 0 22 16" fill="none" xmlns="http://www.w3.org/2000/svg">
<path d="M22 1.57143C21.9987 1.15506 21.8327 0.756106 21.5383 0.461685C21.2439 0.167264 20.8449 0.00128937 20.4286 0H1.57143C1.15506 0.00128937 0.756106 0.167264 0.461685 0.461685C0.167264 0.756106 0.00128937 1.15506 0 1.57143V3.92857H22V1.57143Z" fill="#35D187"/>
<path d="M0 14.1429C0.00128937 14.5593 0.167264 14.9582 0.461685 15.2526C0.756106 15.547 1.15506 15.713 1.57143 15.7143H20.4286C20.8449 15.713 21.2439 15.547 21.5383 15.2526C21.8327 14.9582 21.9987 14.5593 22 14.1429V6.28574H0V14.1429ZM6.97295 11.7857H15.027C15.2091 11.7863 15.3836 11.8589 15.5124 11.9876C15.6412 12.1164 15.7137 12.2909 15.7143 12.473C15.7137 12.6551 15.6412 12.8296 15.5124 12.9583C15.3836 13.0871 15.2091 13.1597 15.027 13.1602H6.97295C6.79086 13.1597 6.61637 13.0871 6.48761 12.9583C6.35885 12.8296 6.28627 12.6551 6.28571 12.473C6.28627 12.2909 6.35885 12.1164 6.48761 11.9876C6.61637 11.8589 6.79086 11.7863 6.97295 11.7857ZM3.43759 11.7857H4.02705C4.20914 11.7863 4.38363 11.8589 4.51239 11.9876C4.64115 12.1164 4.71373 12.2909 4.71429 12.473C4.71373 12.6551 4.64115 12.8296 4.51239 12.9583C4.38363 13.0871 4.20914 13.1597 4.02705 13.1602H3.43759C3.25549 13.1597 3.08101 13.0871 2.95225 12.9583C2.82348 12.8296 2.7509 12.6551 2.75035 12.473C2.7509 12.2909 2.82348 12.1164 2.95225 11.9876C3.08101 11.8589 3.25549 11.7863 3.43759 11.7857Z" fill="#35D187"/>
</svg>
