<svg width="18" height="20" viewBox="0 0 18 20" fill="none" xmlns="http://www.w3.org/2000/svg">
<path d="M8.75 10.0001C9.7389 10.0001 10.7056 9.70682 11.5279 9.15741C12.3501 8.608 12.991 7.82711 13.3694 6.91348C13.7478 5.99985 13.8469 4.99452 13.6539 4.02461C13.461 3.05471 12.9848 2.16379 12.2855 1.46453C11.5863 0.765267 10.6954 0.289063 9.72545 0.0961369C8.75555 -0.0967892 7.75021 0.00222746 6.83658 0.380666C5.92295 0.759104 5.14206 1.39997 4.59265 2.22221C4.04324 3.04446 3.75 4.01116 3.75 5.00006C3.75 6.32614 4.27678 7.59791 5.21447 8.5356C6.15215 9.47328 7.42392 10.0001 8.75 10.0001ZM12.25 11.2501H11.5978C10.7049 11.6619 9.73328 11.8751 8.75 11.8751C7.76671 11.8751 6.79513 11.6619 5.90222 11.2501H5.25C3.8577 11.2504 2.52252 11.8036 1.53801 12.7881C0.553512 13.7726 0.000294572 15.1078 0 16.5001L0 18.1251C0.000147264 18.6223 0.197739 19.0991 0.549337 19.4507C0.900936 19.8023 1.37776 19.9999 1.875 20.0001H15.625C16.1222 19.9999 16.5991 19.8023 16.9507 19.4507C17.3023 19.0991 17.4999 18.6223 17.5 18.1251V16.5001C17.4997 15.1078 16.9465 13.7726 15.962 12.7881C14.9775 11.8036 13.6423 11.2504 12.25 11.2501Z" fill="#D7D7D7"/>
</svg>
