<svg width="20" height="20" viewBox="0 0 20 20" fill="none" xmlns="http://www.w3.org/2000/svg">
<path d="M5.99998 16C5.60442 16 5.21774 16.1173 4.88884 16.3371C4.55995 16.5568 4.3036 16.8692 4.15223 17.2346C4.00085 17.6001 3.96125 18.0022 4.03842 18.3902C4.11559 18.7781 4.30607 19.1345 4.58577 19.4142C4.86548 19.6939 5.22184 19.8844 5.6098 19.9616C5.99776 20.0387 6.3999 19.9991 6.76535 19.8478C7.1308 19.6964 7.44315 19.44 7.66292 19.1111C7.88268 18.7822 7.99998 18.3956 7.99998 18C7.99998 17.4696 7.78926 16.9609 7.41419 16.5858C7.03912 16.2107 6.53041 16 5.99998 16ZM0 6.10352e-05V2.00006H1.99999L5.59998 9.59003L4.24999 12.04C4.08458 12.3328 3.99841 12.6637 3.99999 13C4.00157 13.53 4.21279 14.0378 4.58752 14.4125C4.96225 14.7872 5.47004 14.9984 5.99998 15H17.9999V13H6.41998C6.38705 13.0004 6.35438 12.9942 6.32389 12.9817C6.2934 12.9693 6.2657 12.9509 6.24241 12.9276C6.21912 12.9043 6.20072 12.8766 6.18828 12.8461C6.17585 12.8156 6.16962 12.783 6.16998 12.75L6.19998 12.63L7.09998 11H14.55C14.9072 11.0012 15.2583 10.9062 15.5662 10.7249C15.8741 10.5437 16.1275 10.283 16.3 9.97003L19.8799 3.48005C19.9605 3.333 20.0018 3.1677 19.9999 3.00005C19.9999 2.73484 19.8946 2.48048 19.707 2.29295C19.5195 2.10541 19.2652 2.00006 18.9999 2.00006H4.20999L3.26999 6.10352e-05H0ZM16 16C15.6044 16 15.2177 16.1173 14.8888 16.3371C14.5599 16.5568 14.3036 16.8692 14.1522 17.2346C14.0008 17.6001 13.9612 18.0022 14.0384 18.3902C14.1156 18.7781 14.306 19.1345 14.5857 19.4142C14.8654 19.6939 15.2218 19.8844 15.6098 19.9616C15.9977 20.0387 16.3999 19.9991 16.7653 19.8478C17.1308 19.6964 17.4431 19.44 17.6629 19.1111C17.8826 18.7822 17.9999 18.3956 17.9999 18C17.9999 17.4696 17.7892 16.9609 17.4142 16.5858C17.0391 16.2107 16.5304 16 16 16Z" fill="#D7D7D7"/>
</svg>
