<svg width="19" height="17" viewBox="0 0 19 17" fill="none" xmlns="http://www.w3.org/2000/svg">
<path d="M0.334823 7.62771L7.68571 0.276826C7.90634 0.0880742 8.19007 -0.0104711 8.4802 0.00088242C8.77033 0.0122359 9.0455 0.132652 9.2507 0.338067C9.45591 0.543483 9.57605 0.818768 9.58711 1.10891C9.59817 1.39905 9.49934 1.68269 9.31036 1.90313L3.9201 7.29174H16.9626C17.1135 7.29174 17.2628 7.32146 17.4022 7.37918C17.5416 7.43691 17.6682 7.52152 17.7749 7.62819C17.8815 7.73486 17.9662 7.86149 18.0239 8.00086C18.0816 8.14023 18.1113 8.2896 18.1113 8.44045C18.1113 8.5913 18.0816 8.74067 18.0239 8.88004C17.9662 9.01941 17.8815 9.14604 17.7749 9.2527C17.6682 9.35937 17.5416 9.44398 17.4022 9.50171C17.2628 9.55944 17.1135 9.58915 16.9626 9.58915H3.9201L9.31036 14.9794C9.49702 15.2002 9.59393 15.483 9.58186 15.7719C9.56979 16.0607 9.44964 16.3345 9.24521 16.5389C9.04078 16.7433 8.76701 16.8635 8.47816 16.8756C8.18931 16.8876 7.90647 16.7907 7.68571 16.6041L0.334823 9.25236C0.120359 9.0364 0 8.74439 0 8.44004C0 8.13568 0.120359 7.84367 0.334823 7.62771Z" fill="black"/>
</svg>
