<svg width="48" height="41" viewBox="0 0 48 41" fill="none" xmlns="http://www.w3.org/2000/svg">
<path d="M42 0H6C4.39631 0 2.88928 0.624375 1.758 1.75688C0.624281 2.88938 0 4.39622 0 6C0 9.30844 2.69156 12 6 12H7.5V34.5C7.5 37.8084 10.1916 40.5 13.5 40.5C14.9418 40.5 16.3356 39.9809 17.4247 39.0384C17.9632 38.5725 18.4103 38.0183 18.75 37.4054C19.0897 38.0183 19.5368 38.5725 20.0753 39.0384C21.1644 39.9809 22.5582 40.5 24 40.5C25.4418 40.5 26.8356 39.9809 27.9248 39.0384C28.4632 38.5725 28.9103 38.0183 29.25 37.4054C29.5897 38.0183 30.0368 38.5725 30.5752 39.0384C31.6644 39.9809 33.0582 40.5 34.5 40.5C37.8084 40.5 40.5 37.8084 40.5 34.5V12H42C43.6037 12 45.1107 11.3756 46.242 10.2431C47.3757 9.11062 48 7.60378 48 6C48 2.69156 45.3084 0 42 0ZM29.25 27.75H18.75C17.9215 27.75 17.25 27.0784 17.25 26.25C17.25 25.4216 17.9215 24.75 18.75 24.75H29.25C30.0785 24.75 30.75 25.4216 30.75 26.25C30.75 27.0784 30.0785 27.75 29.25 27.75ZM29.25 20.25H18.75C17.9215 20.25 17.25 19.5784 17.25 18.75C17.25 17.9216 17.9215 17.25 18.75 17.25H29.25C30.0785 17.25 30.75 17.9216 30.75 18.75C30.75 19.5784 30.0785 20.25 29.25 20.25ZM44.1207 8.12175C43.5549 8.68809 42.8018 9 42 9H40.5V8.25C40.5 7.42163 39.8285 6.75 39 6.75H9C8.17153 6.75 7.5 7.42163 7.5 8.25V9H6C4.34578 9 3 7.65422 3 6C3 5.19816 3.31191 4.44506 3.87928 3.87825C4.44506 3.31191 5.19816 3 6 3H42C43.6542 3 45 4.34578 45 6C45 6.80184 44.6881 7.55494 44.1207 8.12175Z" fill="#35D187"/>
</svg>
